<svg width="60" height="60" viewBox="0 0 60 60" fill="none" xmlns="http://www.w3.org/2000/svg">
<path d="M60 30C60 46.5685 46.5685 60 30 60C13.4315 60 0 46.5685 0 30C0 13.4315 13.4315 0 30 0C46.5685 0 60 13.4315 60 30Z" fill="#1B0C30"/>
<path fill-rule="evenodd" clip-rule="evenodd" d="M46.3826 39.1125C46.8383 39.3582 47.0086 39.9268 46.7629 40.3826C43.6453 46.1651 37.6552 48.4773 31.9717 48.2809C26.3276 48.0858 20.7043 45.4043 18.2962 40.8442C18.0544 40.3864 18.2296 39.8192 18.6874 39.5774C19.1452 39.3356 19.7124 39.5108 19.9542 39.9686C21.9523 43.7523 26.8291 46.227 32.0365 46.407C37.2046 46.5856 42.4175 44.4915 45.1125 39.4928C45.3582 39.037 45.9268 38.8668 46.3826 39.1125Z" fill="#33FEDF"/>
<path fill-rule="evenodd" clip-rule="evenodd" d="M31.9837 3.20928C32.0753 2.69968 32.5627 2.36084 33.0723 2.45245C36.0174 2.98191 42.9402 5.53463 47.6182 11.6161C47.9339 12.0265 47.8572 12.6151 47.4468 12.9307C47.0364 13.2464 46.4478 13.1697 46.1321 12.7593C41.8101 7.14069 35.3579 4.76841 32.7405 4.29787C32.2309 4.20626 31.8921 3.71888 31.9837 3.20928Z" fill="#5DFABA"/>
<path fill-rule="evenodd" clip-rule="evenodd" d="M56.388 31.5741C56.9031 31.6264 57.2784 32.0863 57.2261 32.6014C56.924 35.5785 54.9097 42.6767 49.205 47.8073C48.82 48.1535 48.2272 48.1221 47.881 47.7371C47.5348 47.3522 47.5662 46.7594 47.9511 46.4132C53.2217 41.673 55.0922 35.058 55.3607 32.4122C55.4129 31.8971 55.8729 31.5218 56.388 31.5741Z" fill="#33FEDF"/>
<path fill-rule="evenodd" clip-rule="evenodd" d="M48.3698 13.7226C48.8165 13.4608 49.3908 13.6106 49.6527 14.0573L51.2622 16.803L52.1199 18.5184C52.3515 18.9815 52.1638 19.5446 51.7007 19.7762C51.2376 20.0077 50.6744 19.82 50.4429 19.3569L49.6131 17.6973L48.0351 15.0055C47.7733 14.5588 47.9231 13.9845 48.3698 13.7226Z" fill="#33FEDF"/>
<path fill-rule="evenodd" clip-rule="evenodd" d="M52.48 23.1798C52.9849 23.065 53.4872 23.3813 53.6019 23.8862C55.0676 30.335 53.6221 44.4038 39.5534 50.3634C39.0767 50.5654 38.5265 50.3426 38.3245 49.8659C38.1225 49.3891 38.3453 48.8389 38.8221 48.637C51.7534 43.1591 53.1204 30.2279 51.7736 24.3017C51.6588 23.7968 51.9751 23.2945 52.48 23.1798Z" fill="#FEFEFE"/>
<path fill-rule="evenodd" clip-rule="evenodd" d="M37.5152 49.7807C37.7227 50.2551 37.5064 50.8079 37.032 51.0154C36.3503 51.3136 34.4418 51.7327 31.3828 51.6562C30.8652 51.6433 30.4561 51.2132 30.469 50.6956C30.482 50.178 30.9121 49.7688 31.4297 49.7818C34.3707 49.8553 35.9622 49.4368 36.2805 49.2976C36.7548 49.0901 37.3076 49.3064 37.5152 49.7807Z" fill="#33FEDF"/>
<path fill-rule="evenodd" clip-rule="evenodd" d="M18.355 23.5003C18.7348 23.8522 18.7575 24.4453 18.4056 24.8251C15.6921 27.754 14.45 32.6725 15.5717 37.4258C16.6807 42.1257 20.103 46.6483 26.7258 48.7962C27.2183 48.956 27.4881 49.4847 27.3284 49.9772C27.1687 50.4697 26.6399 50.7395 26.1474 50.5798C18.8951 48.2277 15.0049 43.1878 13.7468 37.8564C12.5013 32.5785 13.8374 26.997 17.0301 23.5508C17.382 23.171 17.9752 23.1484 18.355 23.5003Z" fill="white"/>
<path fill-rule="evenodd" clip-rule="evenodd" d="M25.7723 42.6528C25.9394 42.1627 26.4721 41.9008 26.9622 42.0678C27.5724 42.2758 28.5567 42.5844 29.5116 42.8296C29.9893 42.9523 30.4482 43.0562 30.843 43.1242C31.2559 43.1953 31.5337 43.2152 31.6779 43.2043C32.1942 43.1652 32.6444 43.5521 32.6835 44.0684C32.7225 44.5847 32.3357 45.0349 31.8194 45.0739C31.4348 45.103 30.969 45.0485 30.5248 44.972C30.0624 44.8923 29.5506 44.7755 29.0452 44.6457C28.034 44.386 27.3129 44.2884 26.6675 44.0684C26.1774 43.9013 25.6053 43.1428 25.7723 42.6528Z" fill="#33FEDF"/>
<path fill-rule="evenodd" clip-rule="evenodd" d="M28.7863 6.56018C28.8394 6.04515 29.2999 5.67067 29.815 5.72377C36.1348 6.37529 49.1869 11.6938 50.901 27.7443C50.956 28.2591 50.5832 28.721 50.0684 28.776C49.5535 28.831 49.0916 28.4582 49.0366 27.9434C47.4508 13.0939 35.4279 8.18736 29.6227 7.58888C29.1076 7.53578 28.7332 7.07522 28.7863 6.56018Z" fill="#33FEDF"/>
<path fill-rule="evenodd" clip-rule="evenodd" d="M25.4024 6.75631C25.4507 7.27181 25.072 7.72889 24.5565 7.77722C23.5878 7.86804 21.2336 8.21459 19.5482 8.84662C19.0634 9.02842 18.523 8.78279 18.3412 8.29799C18.1594 7.81319 18.405 7.2728 18.8898 7.091C20.8044 6.37304 23.3502 6.00709 24.3815 5.91041C24.897 5.86208 25.3541 6.2408 25.4024 6.75631Z" fill="#33FEDF"/>
<path fill-rule="evenodd" clip-rule="evenodd" d="M17.201 8.98194C17.3665 9.47257 17.1029 10.0044 16.6122 10.1699C15.4138 10.574 13.359 11.7143 11.1744 13.5541C9.00247 15.3832 6.759 17.8566 5.13907 20.8805C4.89457 21.3369 4.32638 21.5086 3.86998 21.2641C3.41357 21.0196 3.2418 20.4514 3.4863 19.995C5.24136 16.7189 7.65415 14.0673 9.9666 12.1199C12.2664 10.1831 14.5241 8.89526 16.0131 8.39315C16.5037 8.22771 17.0356 8.49132 17.201 8.98194Z" fill="white"/>
<path fill-rule="evenodd" clip-rule="evenodd" d="M5.63043 22.9247C13.022 8.14158 26.9938 8.00286 32.8458 10.0857C33.3336 10.2593 33.5883 10.7955 33.4147 11.2833C33.2411 11.7711 32.7049 12.0258 32.2171 11.8521C27.0066 9.99762 14.1659 10.0462 7.30748 23.7632C7.07593 24.2263 6.5128 24.414 6.04969 24.1825C5.58659 23.9509 5.39888 23.3878 5.63043 22.9247Z" fill="#5DFABA"/>
<path fill-rule="evenodd" clip-rule="evenodd" d="M34.2671 11.61C34.4308 11.1188 34.9618 10.8534 35.453 11.0171C36.2896 11.296 38.2883 12.1889 39.9087 13.6472C40.2935 13.9935 40.3247 14.5863 39.9783 14.9712C39.632 15.356 39.0392 15.3872 38.6543 15.0408C37.2747 13.7991 35.5234 13.017 34.86 12.7959C34.3688 12.6322 34.1034 12.1012 34.2671 11.61Z" fill="white"/>
<path fill-rule="evenodd" clip-rule="evenodd" d="M42.3119 17.5837C42.6974 17.2381 43.2901 17.2704 43.6358 17.6559C46.278 20.603 48.0589 26.1587 47.2781 31.5459C46.4834 37.0284 43.0319 42.3574 35.2367 44.6802C34.7405 44.8281 34.2184 44.5457 34.0705 44.0495C33.9227 43.5533 34.2051 43.0311 34.7013 42.8833C41.7561 40.7811 44.7264 36.0789 45.4224 31.277C46.1322 26.3798 44.4725 21.398 42.2397 18.9076C41.8941 18.5221 41.9264 17.9293 42.3119 17.5837Z" fill="#33FEDF"/>
<path fill-rule="evenodd" clip-rule="evenodd" d="M34.4083 16.0662C29.9014 13.8854 24.6 13.9147 21.634 15.1182C21.1542 15.3129 20.6075 15.0818 20.4128 14.602C20.2181 14.1222 20.4492 13.5755 20.929 13.3808C24.4317 11.9595 30.2866 11.9889 35.225 14.3784C40.2524 16.811 44.3532 21.7044 44.1562 29.9282C44.1438 30.4458 43.7142 30.8554 43.1965 30.843C42.6789 30.8306 42.2694 30.4009 42.2818 29.8833C42.4598 22.451 38.8262 18.2039 34.4083 16.0662Z" fill="#5DFABA"/>
<path fill-rule="evenodd" clip-rule="evenodd" d="M11.3879 21.6212C11.8215 21.9041 11.9437 22.485 11.6607 22.9186C10.0781 25.3443 8.36346 29.6627 8.44966 34.6245C8.5352 39.5487 10.3927 45.1424 16.004 50.2106C16.3882 50.5577 16.4184 51.1505 16.0713 51.5348C15.7242 51.919 15.1314 51.9491 14.7472 51.6021C8.73344 46.1703 6.66908 40.0765 6.57494 34.657C6.48144 29.275 8.32926 24.5934 10.0904 21.8941C10.3733 21.4605 10.9542 21.3383 11.3879 21.6212Z" fill="#33FEDF"/>
<path fill-rule="evenodd" clip-rule="evenodd" d="M17.6265 16.0945C17.8506 16.5613 17.6538 17.1213 17.187 17.3454C16.3865 17.7297 15.5914 18.3807 14.907 19.077C14.2274 19.7683 13.7036 20.4562 13.4405 20.8577C13.1568 21.2908 12.5757 21.4119 12.1426 21.1281C11.7095 20.8444 11.5884 20.2633 11.8722 19.8302C12.2028 19.3255 12.8041 18.5415 13.5698 17.7625C14.3307 16.9885 15.3013 16.1708 16.3757 15.655C16.8425 15.431 17.4025 15.6278 17.6265 16.0945Z" fill="#33FEDF"/>
<path fill-rule="evenodd" clip-rule="evenodd" d="M14.3116 45.2133C14.7119 44.8848 15.3026 44.9431 15.631 45.3433C17.5329 47.6613 21.2214 50.7184 26.0291 52.2544C30.8011 53.7789 36.6963 53.8149 43.1242 50.0953C43.5724 49.836 44.1459 49.9891 44.4052 50.4372C44.6645 50.8854 44.5115 51.4589 44.0633 51.7182C37.1413 55.7236 30.6927 55.7127 25.4585 54.0404C20.2599 52.3795 16.2796 49.0897 14.1815 46.5327C13.8531 46.1324 13.9113 45.5417 14.3116 45.2133Z" fill="#5DFABA"/>
<path fill-rule="evenodd" clip-rule="evenodd" d="M16.4041 22.1871C12.995 25.7522 11.4375 30.6953 11.4375 34.0313C11.4375 34.5491 11.0178 34.9688 10.5 34.9688C9.98223 34.9688 9.5625 34.5491 9.5625 34.0313C9.5625 30.2423 11.2862 24.8261 15.049 20.8912C18.8712 16.8942 24.758 14.4723 32.8753 16.7216C33.3743 16.8599 33.6667 17.3764 33.5285 17.8754C33.3902 18.3744 32.8736 18.6668 32.3747 18.5285C24.9295 16.4655 19.7538 18.6841 16.4041 22.1871Z" fill="#33FEDF"/>
<path d="M19.7812 15.2817C19.7812 15.7995 19.3615 16.2192 18.8438 16.2192C18.326 16.2192 17.9062 15.7995 17.9062 15.2817C17.9062 14.764 18.326 14.3442 18.8438 14.3442C19.3615 14.3442 19.7812 14.764 19.7812 15.2817Z" fill="#F8E353"/>
<path d="M28.0312 6.65674C28.0312 7.17451 27.6115 7.59424 27.0938 7.59424C26.576 7.59424 26.1562 7.17451 26.1562 6.65674C26.1562 6.13897 26.576 5.71924 27.0938 5.71924C27.6115 5.71924 28.0312 6.13897 28.0312 6.65674Z" fill="#F8E353"/>
<path d="M42.2812 16.2192C42.2812 16.737 41.8615 17.1567 41.3438 17.1567C40.826 17.1567 40.4062 16.737 40.4062 16.2192C40.4062 15.7015 40.826 15.2817 41.3438 15.2817C41.8615 15.2817 42.2812 15.7015 42.2812 16.2192Z" fill="#F8E353"/>
<path d="M53.1562 21.6567C53.1562 22.1745 52.7365 22.5942 52.2188 22.5942C51.701 22.5942 51.2812 22.1745 51.2812 21.6567C51.2812 21.139 51.701 20.7192 52.2188 20.7192C52.7365 20.7192 53.1562 21.139 53.1562 21.6567Z" fill="#F8E353"/>
<path d="M6.46875 26.1567C6.46875 26.6745 6.04902 27.0942 5.53125 27.0942C5.01348 27.0942 4.59375 26.6745 4.59375 26.1567C4.59375 25.639 5.01348 25.2192 5.53125 25.2192C6.04902 25.2192 6.46875 25.639 6.46875 26.1567Z" fill="#F8E353"/>
<path fill-rule="evenodd" clip-rule="evenodd" d="M25.0716 19.9098C25.1593 20.4201 24.8167 20.9049 24.3064 20.9926C23.1334 21.1942 21.451 21.7916 20.4184 22.8125C20.0503 23.1765 19.4567 23.1732 19.0926 22.805C18.7286 22.4368 18.732 21.8432 19.1002 21.4792C20.5152 20.0802 22.6244 19.3792 23.9888 19.1447C24.4991 19.057 24.9839 19.3995 25.0716 19.9098Z" fill="#33FEDF"/>
<path d="M26.7825 20.8061C26.2831 20.9429 25.7674 20.649 25.6306 20.1497C25.4937 19.6503 25.7876 19.1346 26.287 18.9978C26.7864 18.8609 27.3021 19.1548 27.4389 19.6542C27.5758 20.1535 27.2819 20.6693 26.7825 20.8061Z" fill="#F8E353"/>
<path d="M44.1057 33.2454C44.1057 33.7631 43.686 34.1829 43.1682 34.1829C42.6504 34.1829 42.2307 33.7631 42.2307 33.2454C42.2307 32.7276 42.6504 32.3079 43.1682 32.3079C43.686 32.3079 44.1057 32.7276 44.1057 33.2454Z" fill="#F8E353"/>
<path d="M48.4688 37.7817C48.4688 38.2995 48.049 38.7192 47.5312 38.7192C47.0135 38.7192 46.5938 38.2995 46.5938 37.7817C46.5938 37.264 47.0135 36.8442 47.5312 36.8442C48.049 36.8442 48.4688 37.264 48.4688 37.7817Z" fill="#F8E353"/>
<path d="M25.3125 41.4375C25.3125 41.9553 24.8928 42.375 24.375 42.375C23.8572 42.375 23.4375 41.9553 23.4375 41.4375C23.4375 40.9197 23.8572 40.5 24.375 40.5C24.8928 40.5 25.3125 40.9197 25.3125 41.4375Z" fill="#F8E353"/>
<path d="M29.9062 50.5317C29.9062 51.0495 29.4865 51.4692 28.9688 51.4692C28.451 51.4692 28.0312 51.0495 28.0312 50.5317C28.0312 50.014 28.451 49.5942 28.9688 49.5942C29.4865 49.5942 29.9062 50.014 29.9062 50.5317Z" fill="#F8E353"/>
<path d="M46.875 48.9375C46.875 49.4553 46.4553 49.875 45.9375 49.875C45.4197 49.875 45 49.4553 45 48.9375C45 48.4197 45.4197 48 45.9375 48C46.4553 48 46.875 48.4197 46.875 48.9375Z" fill="#F8E353"/>
<path d="M18.2812 52.7817C18.2812 53.2995 17.8615 53.7192 17.3438 53.7192C16.826 53.7192 16.4062 53.2995 16.4062 52.7817C16.4062 52.264 16.826 51.8442 17.3438 51.8442C17.8615 51.8442 18.2812 52.264 18.2812 52.7817Z" fill="#F8E353"/>
<path d="M12.0938 36.6567C12.0938 37.1745 11.674 37.5942 11.1562 37.5942C10.6385 37.5942 10.2188 37.1745 10.2188 36.6567C10.2188 36.139 10.6385 35.7192 11.1562 35.7192C11.674 35.7192 12.0938 36.139 12.0938 36.6567Z" fill="#F8E353"/>
</svg>
