<svg width="40" height="40" viewBox="0 0 40 40" fill="none" xmlns="http://www.w3.org/2000/svg">
<path fill-rule="evenodd" clip-rule="evenodd" d="M30.9217 26.075C31.2256 26.2388 31.3391 26.6179 31.1753 26.9217C29.0969 30.7768 25.1034 32.3182 21.3145 32.1872C17.5517 32.0572 13.8029 30.2695 12.1975 27.2295C12.0363 26.9242 12.153 26.5461 12.4583 26.385C12.7635 26.2238 13.1416 26.3405 13.3028 26.6458C14.6349 29.1682 17.886 30.818 21.3576 30.938C24.8031 31.0571 28.2784 29.661 30.075 26.3285C30.2388 26.0247 30.6179 25.9112 30.9217 26.075Z" fill="#33FEDF"/>
<path fill-rule="evenodd" clip-rule="evenodd" d="M21.3225 2.13952C21.3835 1.79979 21.7085 1.57389 22.0482 1.63497C24.0116 1.98794 28.6268 3.68976 31.7455 7.74404C31.956 8.01763 31.9048 8.41004 31.6312 8.6205C31.3576 8.83096 30.9652 8.77977 30.7547 8.50618C27.8734 4.76046 23.572 3.17894 21.827 2.86525C21.4873 2.80417 21.2614 2.47925 21.3225 2.13952Z" fill="#5DFABA"/>
<path fill-rule="evenodd" clip-rule="evenodd" d="M37.5919 21.0494C37.9354 21.0842 38.1855 21.3909 38.1507 21.7343C37.9493 23.719 36.6064 28.4511 32.8032 31.8715C32.5466 32.1023 32.1514 32.0814 31.9206 31.8248C31.6898 31.5681 31.7107 31.1729 31.9674 30.9421C35.4811 27.782 36.7281 23.372 36.9071 21.6081C36.9419 21.2647 37.2485 21.0146 37.5919 21.0494Z" fill="#33FEDF"/>
<path fill-rule="evenodd" clip-rule="evenodd" d="M32.2465 9.14841C32.5443 8.97385 32.9272 9.07374 33.1018 9.37153L34.1748 11.202L34.7466 12.3456C34.901 12.6543 34.7758 13.0297 34.4671 13.1841C34.1584 13.3385 33.783 13.2133 33.6286 12.9046L33.0754 11.7982L32.0234 10.0037C31.8489 9.70589 31.9487 9.32298 32.2465 9.14841Z" fill="#33FEDF"/>
<path fill-rule="evenodd" clip-rule="evenodd" d="M34.9866 15.4532C35.3232 15.3767 35.6581 15.5875 35.7346 15.9241C36.7117 20.2234 35.748 29.6025 26.3689 33.5756C26.0511 33.7103 25.6843 33.5618 25.5497 33.2439C25.415 32.9261 25.5635 32.5593 25.8814 32.4246C34.5023 28.7727 35.4136 20.1519 34.5157 16.2011C34.4392 15.8646 34.6501 15.5297 34.9866 15.4532Z" fill="#FEFEFE"/>
<path fill-rule="evenodd" clip-rule="evenodd" d="M25.0101 33.1871C25.1485 33.5034 25.0043 33.8719 24.688 34.0103C24.2335 34.2091 22.9612 34.4884 20.9219 34.4375C20.5768 34.4288 20.3041 34.1421 20.3127 33.797C20.3213 33.452 20.6081 33.1792 20.9531 33.1879C22.9138 33.2369 23.9748 32.9579 24.187 32.8651C24.5032 32.7267 24.8717 32.8709 25.0101 33.1871Z" fill="#33FEDF"/>
<path fill-rule="evenodd" clip-rule="evenodd" d="M12.2367 15.6668C12.4899 15.9014 12.505 16.2969 12.2704 16.5501C10.4615 18.5026 9.63338 21.7816 10.3812 24.9505C11.1206 28.0838 13.4021 31.0988 17.8173 32.5308C18.1456 32.6373 18.3255 32.9898 18.219 33.3181C18.1125 33.6465 17.76 33.8263 17.4317 33.7198C12.5968 32.1518 10.0033 28.7918 9.16459 25.2376C8.33427 21.719 9.22499 17.998 11.3535 15.7005C11.5881 15.4473 11.9835 15.4322 12.2367 15.6668Z" fill="white"/>
<path fill-rule="evenodd" clip-rule="evenodd" d="M17.1815 28.4352C17.2929 28.1084 17.648 27.9339 17.9747 28.0452C18.3815 28.1839 19.0377 28.3896 19.6744 28.5531C19.9928 28.6349 20.2987 28.7041 20.5619 28.7494C20.8372 28.7969 21.0224 28.8101 21.1185 28.8029C21.4627 28.7768 21.7629 29.0347 21.7889 29.3789C21.815 29.7231 21.557 30.0233 21.2129 30.0493C20.9565 30.0687 20.6459 30.0323 20.3498 29.9813C20.0415 29.9282 19.7003 29.8503 19.3634 29.7638C18.6893 29.5907 18.2086 29.5256 17.7783 29.3789C17.4515 29.2676 17.0701 28.7619 17.1815 28.4352Z" fill="#33FEDF"/>
<path fill-rule="evenodd" clip-rule="evenodd" d="M19.1908 4.37346C19.2262 4.0301 19.5333 3.78045 19.8766 3.81584C24.0898 4.25019 32.7913 7.79583 33.934 18.4962C33.9707 18.8394 33.7221 19.1474 33.3789 19.184C33.0357 19.2207 32.7277 18.9721 32.6911 18.6289C31.6338 8.72926 23.6186 5.45824 19.7485 5.05925C19.4051 5.02386 19.1554 4.71681 19.1908 4.37346Z" fill="#33FEDF"/>
<path fill-rule="evenodd" clip-rule="evenodd" d="M16.9349 4.5042C16.9672 4.84788 16.7147 5.15259 16.371 5.18481C15.7252 5.24536 14.1557 5.47639 13.0321 5.89775C12.7089 6.01895 12.3487 5.85519 12.2275 5.53199C12.1063 5.20879 12.27 4.84854 12.5932 4.72734C13.8696 4.24869 15.5668 4.00472 16.2543 3.94027C16.598 3.90805 16.9027 4.16053 16.9349 4.5042Z" fill="#33FEDF"/>
<path fill-rule="evenodd" clip-rule="evenodd" d="M11.4674 5.98796C11.5777 6.31504 11.4019 6.66961 11.0748 6.7799C10.2758 7.04933 8.90601 7.80951 7.4496 9.03604C6.00164 10.2554 4.506 11.9044 3.42605 13.9203C3.26305 14.2246 2.88425 14.3391 2.57998 14.1761C2.27572 14.0131 2.1612 13.6343 2.3242 13.33C3.49424 11.1459 5.10277 9.37823 6.6444 8.07993C8.17757 6.78875 9.68274 5.93017 10.6754 5.59544C11.0025 5.48514 11.3571 5.66088 11.4674 5.98796Z" fill="white"/>
<path fill-rule="evenodd" clip-rule="evenodd" d="M3.75362 15.2831C8.68131 5.42772 17.9959 5.33524 21.8972 6.7238C22.2224 6.83954 22.3922 7.19699 22.2765 7.52219C22.1607 7.84738 21.8033 8.01718 21.4781 7.90143C18.0044 6.66508 9.44397 6.69749 4.87165 15.8421C4.71729 16.1509 4.34187 16.276 4.03313 16.1216C3.72439 15.9673 3.59925 15.5918 3.75362 15.2831Z" fill="#5DFABA"/>
<path fill-rule="evenodd" clip-rule="evenodd" d="M22.8447 7.74003C22.9539 7.41256 23.3078 7.23559 23.6353 7.34474C24.193 7.53065 25.5256 8.12592 26.6058 9.09811C26.8623 9.32902 26.8831 9.7242 26.6522 9.98077C26.4213 10.2373 26.0261 10.2581 25.7696 10.0272C24.8498 9.19942 23.6823 8.67802 23.24 8.5306C22.9126 8.42144 22.7356 8.06749 22.8447 7.74003Z" fill="white"/>
<path fill-rule="evenodd" clip-rule="evenodd" d="M28.2079 11.7225C28.465 11.492 28.8601 11.5136 29.0905 11.7706C30.852 13.7353 32.0393 17.4391 31.5187 21.0306C30.9889 24.6856 28.6879 28.2382 23.4911 29.7868C23.1603 29.8854 22.8123 29.6971 22.7137 29.3663C22.6151 29.0355 22.8034 28.6874 23.1342 28.5888C27.8374 27.1874 29.8176 24.0526 30.2816 20.8513C30.7548 17.5865 29.6483 14.2653 28.1598 12.605C27.9294 12.348 27.9509 11.9529 28.2079 11.7225Z" fill="#33FEDF"/>
<path fill-rule="evenodd" clip-rule="evenodd" d="M22.9389 10.711C19.9343 9.25717 16.4 9.27669 14.4227 10.079C14.1028 10.2088 13.7383 10.0547 13.6085 9.73488C13.4787 9.41503 13.6328 9.05053 13.9527 8.92075C16.2878 7.97322 20.1911 7.99277 23.4833 9.5858C26.8349 11.2075 29.5688 14.4698 29.4375 19.9524C29.4292 20.2974 29.1428 20.5705 28.7977 20.5622C28.4526 20.5539 28.1796 20.2675 28.1878 19.9224C28.3065 14.9675 25.8842 12.1361 22.9389 10.711Z" fill="#5DFABA"/>
<path fill-rule="evenodd" clip-rule="evenodd" d="M7.59186 14.4141C7.88095 14.6027 7.9624 14.99 7.77379 15.2791C6.71872 16.8962 5.5756 19.7751 5.63306 23.083C5.69009 26.3658 6.92844 30.0949 10.6693 33.4738C10.9254 33.7051 10.9455 34.1003 10.7142 34.3565C10.4828 34.6127 10.0876 34.6328 9.83142 34.4014C5.82225 30.7802 4.44602 26.7177 4.38325 23.1047C4.32092 19.5167 5.5528 16.3956 6.7269 14.5961C6.91551 14.307 7.30277 14.2255 7.59186 14.4141Z" fill="#33FEDF"/>
<path fill-rule="evenodd" clip-rule="evenodd" d="M11.751 10.7297C11.9004 11.0409 11.7692 11.4142 11.458 11.5636C10.9243 11.8198 10.3943 12.2538 9.93797 12.718C9.48493 13.1789 9.13575 13.6375 8.96036 13.9052C8.77119 14.1939 8.38378 14.2746 8.09505 14.0854C7.80633 13.8963 7.72562 13.5089 7.91478 13.2201C8.13522 12.8837 8.53605 12.361 9.04654 11.8417C9.5538 11.3257 10.2008 10.7805 10.9171 10.4367C11.2283 10.2873 11.6017 10.4185 11.751 10.7297Z" fill="#33FEDF"/>
<path fill-rule="evenodd" clip-rule="evenodd" d="M9.54107 30.1422C9.80792 29.9232 10.2017 29.962 10.4207 30.2289C11.6886 31.7742 14.1476 33.8122 17.3527 34.8362C20.534 35.8526 24.4642 35.8766 28.7495 33.3969C29.0483 33.224 29.4306 33.326 29.6035 33.6248C29.7764 33.9236 29.6743 34.3059 29.3755 34.4788C24.7609 37.1491 20.4618 37.1418 16.9723 36.0269C13.5066 34.9197 10.8531 32.7265 9.45435 31.0218C9.2354 30.7549 9.27422 30.3611 9.54107 30.1422Z" fill="#5DFABA"/>
<path fill-rule="evenodd" clip-rule="evenodd" d="M10.9361 14.7915C8.66334 17.1682 7.625 20.4637 7.625 22.6877C7.625 23.0328 7.34518 23.3127 7 23.3127C6.65482 23.3127 6.375 23.0328 6.375 22.6877C6.375 20.1616 7.52416 16.5509 10.0327 13.9276C12.5808 11.2629 16.5053 9.6483 21.9169 11.1479C22.2495 11.24 22.4445 11.5844 22.3523 11.9171C22.2601 12.2497 21.9157 12.4446 21.5831 12.3525C16.6197 10.9771 13.1692 12.4562 10.9361 14.7915Z" fill="#33FEDF"/>
<path d="M13.1875 10.1878C13.1875 10.533 12.9077 10.8128 12.5625 10.8128C12.2173 10.8128 11.9375 10.533 11.9375 10.1878C11.9375 9.84263 12.2173 9.56281 12.5625 9.56281C12.9077 9.56281 13.1875 9.84263 13.1875 10.1878Z" fill="#F8E353"/>
<path d="M18.6875 4.43781C18.6875 4.78298 18.4077 5.06281 18.0625 5.06281C17.7173 5.06281 17.4375 4.78298 17.4375 4.43781C17.4375 4.09263 17.7173 3.81281 18.0625 3.81281C18.4077 3.81281 18.6875 4.09263 18.6875 4.43781Z" fill="#F8E353"/>
<path d="M28.1875 10.8128C28.1875 11.158 27.9077 11.4378 27.5625 11.4378C27.2173 11.4378 26.9375 11.158 26.9375 10.8128C26.9375 10.4676 27.2173 10.1878 27.5625 10.1878C27.9077 10.1878 28.1875 10.4676 28.1875 10.8128Z" fill="#F8E353"/>
<path d="M35.4375 14.4378C35.4375 14.783 35.1577 15.0628 34.8125 15.0628C34.4673 15.0628 34.1875 14.783 34.1875 14.4378C34.1875 14.0926 34.4673 13.8128 34.8125 13.8128C35.1577 13.8128 35.4375 14.0926 35.4375 14.4378Z" fill="#F8E353"/>
<path d="M4.3125 17.4378C4.3125 17.783 4.03268 18.0628 3.6875 18.0628C3.34232 18.0628 3.0625 17.783 3.0625 17.4378C3.0625 17.0926 3.34232 16.8128 3.6875 16.8128C4.03268 16.8128 4.3125 17.0926 4.3125 17.4378Z" fill="#F8E353"/>
<path fill-rule="evenodd" clip-rule="evenodd" d="M16.7144 13.2733C16.7729 13.6135 16.5445 13.9367 16.2043 13.9951C15.4223 14.1295 14.3007 14.5278 13.6124 15.2084C13.3669 15.4511 12.9712 15.4489 12.7285 15.2034C12.4858 14.9579 12.4881 14.5622 12.7335 14.3195C13.6768 13.3869 15.083 12.9195 15.9926 12.7632C16.3328 12.7047 16.656 12.9331 16.7144 13.2733Z" fill="#33FEDF"/>
<path d="M17.8549 13.8707C17.522 13.962 17.1782 13.766 17.087 13.4331C16.9958 13.1002 17.1917 12.7564 17.5246 12.6652C17.8575 12.5739 18.2013 12.7699 18.2926 13.1028C18.3838 13.4357 18.1879 13.7795 17.8549 13.8707Z" fill="#F8E353"/>
<path d="M29.4039 22.1635C29.4039 22.5086 29.124 22.7885 28.7789 22.7885C28.4337 22.7885 28.1539 22.5086 28.1539 22.1635C28.1539 21.8183 28.4337 21.5385 28.7789 21.5385C29.124 21.5385 29.4039 21.8183 29.4039 22.1635Z" fill="#F8E353"/>
<path d="M32.3125 25.1878C32.3125 25.533 32.0327 25.8128 31.6875 25.8128C31.3423 25.8128 31.0625 25.533 31.0625 25.1878C31.0625 24.8426 31.3423 24.5628 31.6875 24.5628C32.0327 24.5628 32.3125 24.8426 32.3125 25.1878Z" fill="#F8E353"/>
<path d="M16.875 27.625C16.875 27.9702 16.5952 28.25 16.25 28.25C15.9048 28.25 15.625 27.9702 15.625 27.625C15.625 27.2798 15.9048 27 16.25 27C16.5952 27 16.875 27.2798 16.875 27.625Z" fill="#F8E353"/>
<path d="M19.9375 33.6878C19.9375 34.033 19.6577 34.3128 19.3125 34.3128C18.9673 34.3128 18.6875 34.033 18.6875 33.6878C18.6875 33.3426 18.9673 33.0628 19.3125 33.0628C19.6577 33.0628 19.9375 33.3426 19.9375 33.6878Z" fill="#F8E353"/>
<path d="M31.25 32.625C31.25 32.9702 30.9702 33.25 30.625 33.25C30.2798 33.25 30 32.9702 30 32.625C30 32.2798 30.2798 32 30.625 32C30.9702 32 31.25 32.2798 31.25 32.625Z" fill="#F8E353"/>
<path d="M12.1875 35.1878C12.1875 35.533 11.9077 35.8128 11.5625 35.8128C11.2173 35.8128 10.9375 35.533 10.9375 35.1878C10.9375 34.8426 11.2173 34.5628 11.5625 34.5628C11.9077 34.5628 12.1875 34.8426 12.1875 35.1878Z" fill="#F8E353"/>
<path d="M8.0625 24.4378C8.0625 24.783 7.78268 25.0628 7.4375 25.0628C7.09232 25.0628 6.8125 24.783 6.8125 24.4378C6.8125 24.0926 7.09232 23.8128 7.4375 23.8128C7.78268 23.8128 8.0625 24.0926 8.0625 24.4378Z" fill="#F8E353"/>
</svg>
